<svg width="251" height="200" viewBox="0 0 251 200" fill="none" xmlns="http://www.w3.org/2000/svg">
<path fill-rule="evenodd" clip-rule="evenodd" d="M63.5 134H154.5C155.015 134 155.517 133.944 156 133.839C156.483 133.944 156.985 134 157.5 134H209.5C213.366 134 216.5 130.866 216.5 127C216.5 123.134 213.366 120 209.5 120H203.5C199.634 120 196.5 116.866 196.5 113C196.5 109.134 199.634 106 203.5 106H222.5C226.366 106 229.5 102.866 229.5 99C229.5 95.134 226.366 92 222.5 92H200.5C204.366 92 207.5 88.866 207.5 85C207.5 81.134 204.366 78 200.5 78H136.5C140.366 78 143.5 74.866 143.5 71C143.5 67.134 140.366 64 136.5 64H79.5C75.634 64 72.5 67.134 72.5 71C72.5 74.866 75.634 78 79.5 78H39.5C35.634 78 32.5 81.134 32.5 85C32.5 88.866 35.634 92 39.5 92H64.5C68.366 92 71.5 95.134 71.5 99C71.5 102.866 68.366 106 64.5 106H24.5C20.634 106 17.5 109.134 17.5 113C17.5 116.866 20.634 120 24.5 120H63.5C59.634 120 56.5 123.134 56.5 127C56.5 130.866 59.634 134 63.5 134ZM226.5 134C230.366 134 233.5 130.866 233.5 127C233.5 123.134 230.366 120 226.5 120C222.634 120 219.5 123.134 219.5 127C219.5 130.866 222.634 134 226.5 134Z" fill="#E7EAF0"/>
<path fill-rule="evenodd" clip-rule="evenodd" d="M70.4525 70.5176L153.477 57.2259C155.113 56.964 156.652 58.0779 156.914 59.714C156.914 59.7172 156.915 59.7205 156.915 59.7238L165.037 111.556C165.293 113.189 164.18 114.721 162.548 114.983L79.5227 128.274C77.8867 128.536 76.3481 127.422 76.0862 125.786C76.0857 125.783 76.0851 125.78 76.0846 125.776L67.9629 73.9443C67.707 72.3113 68.8203 70.7789 70.4525 70.5176Z" fill="white"/>
<path d="M83.8448 127.423L80.6615 127.948C78.4748 128.308 76.4214 126.756 76.075 124.481L68.5499 75.0391C68.2036 72.7636 69.6955 70.6268 71.8822 70.2664L152.058 57.0519C154.245 56.6916 156.298 58.2441 156.645 60.5196C156.982 62.7367 157.251 64.5036 157.452 65.8203M158.023 69.5758C158.205 70.7685 158.364 71.8129 158.5 72.7091" stroke="#1665FF" stroke-width="1.5" stroke-linecap="round"/>
<path fill-rule="evenodd" clip-rule="evenodd" d="M74.477 72.792L150.237 60.9609C151.869 60.7061 153.4 61.8183 153.662 63.4492L161.022 109.268C161.285 110.904 160.172 112.443 158.536 112.706C158.532 112.707 158.527 112.707 158.523 112.708L82.7629 124.539C81.131 124.794 79.6 123.682 79.338 122.051L71.9779 76.2319C71.7151 74.596 72.8282 73.0568 74.4641 72.794C74.4684 72.7933 74.4727 72.7927 74.477 72.792Z" fill="#F6F9FF"/>
<path d="M171.25 77.25H92.75C90.5409 77.25 88.75 79.0409 88.75 81.25V129.75C88.75 131.959 90.5409 133.75 92.75 133.75H171.25C173.459 133.75 175.25 131.959 175.25 129.75V81.25C175.25 79.0409 173.459 77.25 171.25 77.25Z" fill="white" stroke="#1665FF" stroke-width="1.5"/>
<path d="M174 89H90V103H174V89Z" fill="#F6F9FF"/>
<path d="M103.789 89H96.5926M174.671 89H108.831H174.671ZM168.671 102H89.8315H168.671ZM125.562 121H97.2546H125.562Z" stroke="#1665FF" stroke-width="1.5" stroke-linecap="round" stroke-linejoin="round"/>
</svg>
