<svg width="528" height="36" viewBox="0 0 528 36" fill="none" xmlns="http://www.w3.org/2000/svg">
<g clip-path="url(#clip0_406_7976)">
<path d="M9.075 15.21V13.32H0.15V15.21H3.51V24H5.715V15.21H9.075ZM12.3485 15.12V13.32H10.2485V15.12H12.3485ZM12.3485 24V16.38H10.2485V24H12.3485ZM18.624 16.2C17.649 16.2 16.884 16.665 16.389 17.34H16.359V16.38H14.394V24H16.494V19.92C16.494 18.54 17.124 17.85 17.994 17.85C18.819 17.85 19.329 18.375 19.329 19.53V24H21.429V19.32C21.429 17.25 20.334 16.2 18.624 16.2ZM30.6632 24L27.4532 19.89L30.3482 16.38H27.9782L25.5182 19.455H25.4882V13.32H23.3882V24H25.4882V20.43H25.5182L28.0682 24H30.6632ZM34.5422 16.14C32.1572 16.14 30.6422 17.715 30.6422 20.19C30.6422 22.665 32.1572 24.24 34.5422 24.24C36.9272 24.24 38.4422 22.665 38.4422 20.19C38.4422 17.715 36.9272 16.14 34.5422 16.14ZM34.5422 17.76C35.5772 17.76 36.2372 18.705 36.2372 20.19C36.2372 21.675 35.5772 22.62 34.5422 22.62C33.5072 22.62 32.8472 21.675 32.8472 20.19C32.8472 18.705 33.5072 17.76 34.5422 17.76ZM48.2198 14.76C48.3548 14.76 48.5048 14.775 48.5948 14.805V13.32C48.3398 13.26 47.9198 13.2 47.5598 13.2C45.9248 13.2 45.0398 14.025 45.0398 15.69V16.38H42.4448V15.945C42.4448 15.075 42.8198 14.76 43.5548 14.76C43.6898 14.76 43.8398 14.775 43.9298 14.805V13.32C43.6748 13.26 43.2548 13.2 42.8948 13.2C41.2598 13.2 40.3748 14.025 40.3748 15.69V16.38H39.1148V17.94H40.3748V24H42.4448V17.94H45.0398V24H47.1098V17.94H48.5498V16.38H47.1098V15.945C47.1098 15.075 47.4848 14.76 48.2198 14.76Z" fill="black"/>
<rect x="56" y="8" width="48.7" height="20" rx="10" fill="black" stroke="white" stroke-width="2"/>
<path fill-rule="evenodd" clip-rule="evenodd" d="M64.9462 12.2726H60.6719V15.7921V20.7194V23.535H64.9462H67.7959H72.0706V12.2726H67.7959H64.9462Z" fill="white" fill-opacity="0.01"/>
<rect opacity="0.56" x="67.7954" y="21.423" width="0.712422" height="0.703901" fill="#333333"/>
<rect opacity="0.56" x="64.2334" y="21.423" width="0.712422" height="0.703901" fill="#333333"/>
<mask id="path-6-outside-1_406_7976" maskUnits="userSpaceOnUse" x="60.3857" y="11.9865" width="12" height="12" fill="black">
<rect fill="white" x="60.3857" y="11.9865" width="12" height="12"/>
<path fill-rule="evenodd" clip-rule="evenodd" d="M65.6601 12.9865H67.0849V13.7003H65.6601V12.9865ZM63.5229 13.7003H64.2354V14.4141H63.5229V13.7003ZM62.8105 14.4142H63.523V15.128H62.8105V14.4142ZM64.2354 15.1281H63.5229V15.8414H62.8105V16.5553H63.523V15.8419H64.2354V15.1281ZM62.8106 16.5558H62.0981V17.2693H61.3857V17.9831H62.0982V17.2696H62.8105V17.983H63.523V17.2692H62.8106V16.5558ZM61.3857 15.8415H62.0982V16.5553H61.3857V15.8415ZM62.8106 17.9835H62.0981V18.6969H61.3857V19.4107H62.0982V18.6973H62.8105V19.4107H63.523V18.6969H62.8106V17.9835ZM62.0981 19.4108H62.8106V20.1246H62.0981V19.4108ZM63.523 20.1251H62.8105V20.8389H63.5229V21.5523H64.2354V20.8385H63.523V20.1251ZM69.2222 20.8385H68.5098V21.5523H69.2222V20.8385ZM67.085 20.1251H67.7974V20.8389H67.085V21.5523H65.6602V20.839H64.9478V20.1252H65.6602V20.8385H67.085V20.1251ZM67.085 21.5524H67.7974V22.2662H67.085V21.5524ZM69.9351 20.1251H69.2227V20.8389H69.9351V20.1251ZM69.9351 19.4108H70.6475V20.1246H69.9351V19.4108ZM70.647 18.6973H69.9351V19.4107H69.2227V18.6969H69.9351V17.9835H70.6475V18.6969H71.3594V19.4107H70.647V18.6973ZM69.9351 17.2696H70.647V17.983H71.3594V17.2692H70.6475V16.5558H69.9351V17.2692H69.2227V17.983H69.9351V17.2696ZM71.3594 15.8414H70.647V16.5553H71.3594V15.8414ZM69.2227 15.8414H69.9351V16.5553H69.2227V15.8414ZM69.2222 15.1281H68.5098V15.8419H69.2222V15.1281ZM69.2227 14.4142H69.9351V15.128H69.2227V14.4142ZM69.2222 13.7003H68.5098V14.4141H69.2222V13.7003ZM64.9482 14.4142H65.6606H65.6607H67.0854V15.128H65.6607V15.8418H64.9482V14.4142ZM67.7979 14.4142H67.0854V15.8418H67.7979V14.4142ZM64.9478 21.5524H65.6602V22.2661H67.0849V22.98H65.6601V22.2662H64.9478V21.5524ZM64.9478 15.8419H64.2354V16.5558V17.2696V20.1248H64.9478V17.2696H67.7974V20.1248H68.5098V17.2696H68.5099V16.5558H68.5098V15.8419H67.7974V16.5558H64.9478V15.8419Z"/>
</mask>
<path fill-rule="evenodd" clip-rule="evenodd" d="M65.6601 12.9865H67.0849V13.7003H65.6601V12.9865ZM63.5229 13.7003H64.2354V14.4141H63.5229V13.7003ZM62.8105 14.4142H63.523V15.128H62.8105V14.4142ZM64.2354 15.1281H63.5229V15.8414H62.8105V16.5553H63.523V15.8419H64.2354V15.1281ZM62.8106 16.5558H62.0981V17.2693H61.3857V17.9831H62.0982V17.2696H62.8105V17.983H63.523V17.2692H62.8106V16.5558ZM61.3857 15.8415H62.0982V16.5553H61.3857V15.8415ZM62.8106 17.9835H62.0981V18.6969H61.3857V19.4107H62.0982V18.6973H62.8105V19.4107H63.523V18.6969H62.8106V17.9835ZM62.0981 19.4108H62.8106V20.1246H62.0981V19.4108ZM63.523 20.1251H62.8105V20.8389H63.5229V21.5523H64.2354V20.8385H63.523V20.1251ZM69.2222 20.8385H68.5098V21.5523H69.2222V20.8385ZM67.085 20.1251H67.7974V20.8389H67.085V21.5523H65.6602V20.839H64.9478V20.1252H65.6602V20.8385H67.085V20.1251ZM67.085 21.5524H67.7974V22.2662H67.085V21.5524ZM69.9351 20.1251H69.2227V20.8389H69.9351V20.1251ZM69.9351 19.4108H70.6475V20.1246H69.9351V19.4108ZM70.647 18.6973H69.9351V19.4107H69.2227V18.6969H69.9351V17.9835H70.6475V18.6969H71.3594V19.4107H70.647V18.6973ZM69.9351 17.2696H70.647V17.983H71.3594V17.2692H70.6475V16.5558H69.9351V17.2692H69.2227V17.983H69.9351V17.2696ZM71.3594 15.8414H70.647V16.5553H71.3594V15.8414ZM69.2227 15.8414H69.9351V16.5553H69.2227V15.8414ZM69.2222 15.1281H68.5098V15.8419H69.2222V15.1281ZM69.2227 14.4142H69.9351V15.128H69.2227V14.4142ZM69.2222 13.7003H68.5098V14.4141H69.2222V13.7003ZM64.9482 14.4142H65.6606H65.6607H67.0854V15.128H65.6607V15.8418H64.9482V14.4142ZM67.7979 14.4142H67.0854V15.8418H67.7979V14.4142ZM64.9478 21.5524H65.6602V22.2661H67.0849V22.98H65.6601V22.2662H64.9478V21.5524ZM64.9478 15.8419H64.2354V16.5558V17.2696V20.1248H64.9478V17.2696H67.7974V20.1248H68.5098V17.2696H68.5099V16.5558H68.5098V15.8419H67.7974V16.5558H64.9478V15.8419Z" fill="#333333"/>
<path d="M67.0849 12.9865H67.7987V12.2726H67.0849V12.9865ZM65.6601 12.9865V12.2726H64.9463V12.9865H65.6601ZM67.0849 13.7003V14.4141H67.7987V13.7003H67.0849ZM65.6601 13.7003H64.9463V14.4141H65.6601V13.7003ZM64.2354 13.7003H64.9492V12.9865H64.2354V13.7003ZM63.5229 13.7003V12.9865H62.8091V13.7003H63.5229ZM64.2354 14.4141V15.128H64.9492V14.4141H64.2354ZM63.5229 14.4141H62.8091V15.128H63.5229V14.4141ZM63.523 14.4142H64.2368V13.7004H63.523V14.4142ZM62.8105 14.4142V13.7004H62.0967V14.4142H62.8105ZM63.523 15.128V15.8418H64.2368V15.128H63.523ZM62.8105 15.128H62.0967V15.8418H62.8105V15.128ZM63.5229 15.1281V14.4142H62.8091V15.1281H63.5229ZM64.2354 15.1281H64.9492V14.4142H64.2354V15.1281ZM63.5229 15.8414V16.5552H64.2368V15.8414H63.5229ZM62.8105 15.8414V15.1276H62.0967V15.8414H62.8105ZM62.8105 16.5553H62.0967V17.2691H62.8105V16.5553ZM63.523 16.5553V17.2691H64.2368V16.5553H63.523ZM63.523 15.8419V15.1281H62.8092V15.8419H63.523ZM64.2354 15.8419V16.5557H64.9492V15.8419H64.2354ZM62.0981 16.5558V15.842H61.3843V16.5558H62.0981ZM62.8106 16.5558H63.5244V15.842H62.8106V16.5558ZM62.0981 17.2693V17.9831H62.812V17.2693H62.0981ZM61.3857 17.2693V16.5554H60.6719V17.2693H61.3857ZM61.3857 17.9831H60.6719V18.6969H61.3857V17.9831ZM62.0982 17.9831V18.6969H62.812V17.9831H62.0982ZM62.0982 17.2696V16.5558H61.3843V17.2696H62.0982ZM62.8105 17.2696H63.5244V16.5558H62.8105V17.2696ZM62.8105 17.983H62.0967V18.6968H62.8105V17.983ZM63.523 17.983V18.6968H64.2368V17.983H63.523ZM63.523 17.2692H64.2368V16.5553H63.523V17.2692ZM62.8106 17.2692H62.0968V17.983H62.8106V17.2692ZM62.0982 15.8415H62.812V15.1277H62.0982V15.8415ZM61.3857 15.8415V15.1277H60.6719V15.8415H61.3857ZM62.0982 16.5553V17.2691H62.812V16.5553H62.0982ZM61.3857 16.5553H60.6719V17.2691H61.3857V16.5553ZM62.0981 17.9835V17.2697H61.3843V17.9835H62.0981ZM62.8106 17.9835H63.5244V17.2697H62.8106V17.9835ZM62.0981 18.6969V19.4107H62.812V18.6969H62.0981ZM61.3857 18.6969V17.9831H60.6719V18.6969H61.3857ZM61.3857 19.4107H60.6719V20.1245H61.3857V19.4107ZM62.0982 19.4107V20.1245H62.812V19.4107H62.0982ZM62.0982 18.6973V17.9835H61.3843V18.6973H62.0982ZM62.8105 18.6973H63.5244V17.9835H62.8105V18.6973ZM62.8105 19.4107H62.0967V20.1245H62.8105V19.4107ZM63.523 19.4107V20.1245H64.2368V19.4107H63.523ZM63.523 18.6969H64.2368V17.9831H63.523V18.6969ZM62.8106 18.6969H62.0968V19.4107H62.8106V18.6969ZM62.8106 19.4108H63.5244V18.697H62.8106V19.4108ZM62.0981 19.4108V18.697H61.3843V19.4108H62.0981ZM62.8106 20.1246V20.8384H63.5244V20.1246H62.8106ZM62.0981 20.1246H61.3843V20.8384H62.0981V20.1246ZM62.8105 20.1251V19.4113H62.0967V20.1251H62.8105ZM63.523 20.1251H64.2368V19.4113H63.523V20.1251ZM62.8105 20.8389H62.0967V21.5528H62.8105V20.8389ZM63.5229 20.8389H64.2368V20.1251H63.5229V20.8389ZM63.5229 21.5523H62.8091V22.2661H63.5229V21.5523ZM64.2354 21.5523V22.2661H64.9492V21.5523H64.2354ZM64.2354 20.8385H64.9492V20.1247H64.2354V20.8385ZM63.523 20.8385H62.8092V21.5523H63.523V20.8385ZM68.5098 20.8385V20.1247H67.7959V20.8385H68.5098ZM69.2222 20.8385H69.936V20.1247H69.2222V20.8385ZM68.5098 21.5523H67.7959V22.2661H68.5098V21.5523ZM69.2222 21.5523V22.2661H69.936V21.5523H69.2222ZM67.7974 20.1251H68.5112V19.4113H67.7974V20.1251ZM67.085 20.1251V19.4113H66.3711V20.1251H67.085ZM67.7974 20.8389V21.5528H68.5112V20.8389H67.7974ZM67.085 20.8389V20.1251H66.3712V20.8389H67.085ZM67.085 21.5523V22.2661H67.7988V21.5523H67.085ZM65.6602 21.5523H64.9463V22.2661H65.6602V21.5523ZM65.6602 20.839H66.374V20.1252H65.6602V20.839ZM64.9478 20.839H64.234V21.5528H64.9478V20.839ZM64.9478 20.1252V19.4114H64.234V20.1252H64.9478ZM65.6602 20.1252H66.374V19.4114H65.6602V20.1252ZM65.6602 20.8385H64.9464V21.5523H65.6602V20.8385ZM67.085 20.8385V21.5523H67.7988V20.8385H67.085ZM67.7974 21.5524H68.5112V20.8386H67.7974V21.5524ZM67.085 21.5524V20.8386H66.3711V21.5524H67.085ZM67.7974 22.2662V22.98H68.5112V22.2662H67.7974ZM67.085 22.2662H66.3711V22.98H67.085V22.2662ZM69.2227 20.1251V19.4113H68.5088V20.1251H69.2227ZM69.9351 20.1251H70.6489V19.4113H69.9351V20.1251ZM69.2227 20.8389H68.5088V21.5528H69.2227V20.8389ZM69.9351 20.8389V21.5528H70.6489V20.8389H69.9351ZM70.6475 19.4108H71.3613V18.697H70.6475V19.4108ZM69.9351 19.4108V18.697H69.2212V19.4108H69.9351ZM70.6475 20.1246V20.8384H71.3613V20.1246H70.6475ZM69.9351 20.1246H69.2212V20.8384H69.9351V20.1246ZM69.9351 18.6973V17.9835H69.2213V18.6973H69.9351ZM70.647 18.6973H71.3608V17.9835H70.647V18.6973ZM69.9351 19.4107V20.1245H70.6489V19.4107H69.9351ZM69.2227 19.4107H68.5088V20.1245H69.2227V19.4107ZM69.2227 18.6969V17.9831H68.5088V18.6969H69.2227ZM69.9351 18.6969V19.4107H70.6489V18.6969H69.9351ZM69.9351 17.9835V17.2697H69.2212V17.9835H69.9351ZM70.6475 17.9835H71.3613V17.2697H70.6475V17.9835ZM70.6475 18.6969H69.9337V19.4107H70.6475V18.6969ZM71.3594 18.6969H72.0732V17.9831H71.3594V18.6969ZM71.3594 19.4107V20.1245H72.0732V19.4107H71.3594ZM70.647 19.4107H69.9332V20.1245H70.647V19.4107ZM70.647 17.2696H71.3608V16.5558H70.647V17.2696ZM69.9351 17.2696V16.5558H69.2213V17.2696H69.9351ZM70.647 17.983H69.9332V18.6968H70.647V17.983ZM71.3594 17.983V18.6968H72.0732V17.983H71.3594ZM71.3594 17.2692H72.0732V16.5553H71.3594V17.2692ZM70.6475 17.2692H69.9337V17.983H70.6475V17.2692ZM70.6475 16.5558H71.3613V15.842H70.6475V16.5558ZM69.9351 16.5558V15.842H69.2212V16.5558H69.9351ZM69.9351 17.2692V17.983H70.6489V17.2692H69.9351ZM69.2227 17.2692V16.5553H68.5088V17.2692H69.2227ZM69.2227 17.983H68.5088V18.6968H69.2227V17.983ZM69.9351 17.983V18.6968H70.6489V17.983H69.9351ZM70.647 15.8414V15.1276H69.9332V15.8414H70.647ZM71.3594 15.8414H72.0732V15.1276H71.3594V15.8414ZM70.647 16.5553H69.9332V17.2691H70.647V16.5553ZM71.3594 16.5553V17.2691H72.0732V16.5553H71.3594ZM69.9351 15.8414H70.6489V15.1276H69.9351V15.8414ZM69.2227 15.8414V15.1276H68.5088V15.8414H69.2227ZM69.9351 16.5553V17.2691H70.6489V16.5553H69.9351ZM69.2227 16.5553H68.5088V17.2691H69.2227V16.5553ZM68.5098 15.1281V14.4142H67.7959V15.1281H68.5098ZM69.2222 15.1281H69.936V14.4142H69.2222V15.1281ZM68.5098 15.8419H67.7959V16.5557H68.5098V15.8419ZM69.2222 15.8419V16.5557H69.936V15.8419H69.2222ZM69.9351 14.4142H70.6489V13.7004H69.9351V14.4142ZM69.2227 14.4142V13.7004H68.5088V14.4142H69.2227ZM69.9351 15.128V15.8418H70.6489V15.128H69.9351ZM69.2227 15.128H68.5088V15.8418H69.2227V15.128ZM68.5098 13.7003V12.9865H67.7959V13.7003H68.5098ZM69.2222 13.7003H69.936V12.9865H69.2222V13.7003ZM68.5098 14.4141H67.7959V15.128H68.5098V14.4141ZM69.2222 14.4141V15.128H69.936V14.4141H69.2222ZM64.9482 14.4142V13.7004H64.2344V14.4142H64.9482ZM67.0854 14.4142H67.7992V13.7004H67.0854V14.4142ZM67.0854 15.128V15.8418H67.7992V15.128H67.0854ZM65.6607 15.128V14.4142H64.9468V15.128H65.6607ZM65.6607 15.8418V16.5556H66.3745V15.8418H65.6607ZM64.9482 15.8418H64.2344V16.5556H64.9482V15.8418ZM67.0854 14.4142V13.7004H66.3716V14.4142H67.0854ZM67.7979 14.4142H68.5117V13.7004H67.7979V14.4142ZM67.0854 15.8418H66.3716V16.5556H67.0854V15.8418ZM67.7979 15.8418V16.5556H68.5117V15.8418H67.7979ZM65.6602 21.5524H66.374V20.8386H65.6602V21.5524ZM64.9478 21.5524V20.8386H64.2339V21.5524H64.9478ZM65.6602 22.2661H64.9464V22.98H65.6602V22.2661ZM67.0849 22.2661H67.7987V21.5523H67.0849V22.2661ZM67.0849 22.98V23.6938H67.7987V22.98H67.0849ZM65.6601 22.98H64.9463V23.6938H65.6601V22.98ZM65.6601 22.2662H66.3739V21.5524H65.6601V22.2662ZM64.9478 22.2662H64.2339V22.98H64.9478V22.2662ZM64.2354 15.8419V15.1281H63.5215V15.8419H64.2354ZM64.9478 15.8419H65.6616V15.1281H64.9478V15.8419ZM64.2354 20.1248H63.5215V20.8387H64.2354V20.1248ZM64.9478 20.1248V20.8387H65.6616V20.1248H64.9478ZM64.9478 17.2696V16.5558H64.234V17.2696H64.9478ZM67.7974 17.2696H68.5112V16.5558H67.7974V17.2696ZM67.7974 20.1248H67.0836V20.8387H67.7974V20.1248ZM68.5098 20.1248V20.8387H69.2236V20.1248H68.5098ZM68.5098 17.2696V16.5558H67.796V17.2696H68.5098ZM68.5099 17.2696V17.9834H69.2237V17.2696H68.5099ZM68.5099 16.5558H69.2237V15.842H68.5099V16.5558ZM68.5098 16.5558H67.796V17.2696H68.5098V16.5558ZM68.5098 15.8419H69.2236V15.1281H68.5098V15.8419ZM67.7974 15.8419V15.1281H67.0836V15.8419H67.7974ZM67.7974 16.5558V17.2696H68.5112V16.5558H67.7974ZM64.9478 16.5558H64.234V17.2696H64.9478V16.5558ZM67.0849 12.2726H65.6601V13.7003H67.0849V12.2726ZM67.7987 13.7003V12.9865H66.3711V13.7003H67.7987ZM65.6601 14.4141H67.0849V12.9865H65.6601V14.4141ZM64.9463 12.9865V13.7003H66.3739V12.9865H64.9463ZM64.2354 12.9865H63.5229V14.4141H64.2354V12.9865ZM64.9492 14.4141V13.7003H63.5216V14.4141H64.9492ZM63.5229 15.128H64.2354V13.7003H63.5229V15.128ZM62.8091 13.7003V14.4141H64.2368V13.7003H62.8091ZM63.523 13.7004H62.8105V15.128H63.523V13.7004ZM64.2368 15.128V14.4142H62.8092V15.128H64.2368ZM62.8105 15.8418H63.523V14.4142H62.8105V15.8418ZM62.0967 14.4142V15.128H63.5244V14.4142H62.0967ZM63.5229 15.8419H64.2354V14.4142H63.5229V15.8419ZM64.2368 15.8414V15.1281H62.8091V15.8414H64.2368ZM62.8105 16.5552H63.5229V15.1276H62.8105V16.5552ZM63.5244 16.5553V15.8414H62.0967V16.5553H63.5244ZM63.523 15.8414H62.8105V17.2691H63.523V15.8414ZM62.8092 15.8419V16.5553H64.2368V15.8419H62.8092ZM64.2354 15.1281H63.523V16.5557H64.2354V15.1281ZM63.5216 15.1281V15.8419H64.9492V15.1281H63.5216ZM62.0981 17.2696H62.8106V15.842H62.0981V17.2696ZM62.812 17.2693V16.5558H61.3843V17.2693H62.812ZM61.3857 17.9831H62.0981V16.5554H61.3857V17.9831ZM62.0996 17.9831V17.2693H60.6719V17.9831H62.0996ZM62.0982 17.2693H61.3857V18.6969H62.0982V17.2693ZM61.3843 17.2696V17.9831H62.812V17.2696H61.3843ZM62.8105 16.5558H62.0982V17.9834H62.8105V16.5558ZM63.5244 17.983V17.2696H62.0967V17.983H63.5244ZM63.523 17.2692H62.8105V18.6968H63.523V17.2692ZM62.8092 17.2692V17.983H64.2368V17.2692H62.8092ZM62.8106 17.983H63.523V16.5553H62.8106V17.983ZM62.0968 16.5558V17.2692H63.5244V16.5558H62.0968ZM62.0982 15.1277H61.3857V16.5553H62.0982V15.1277ZM62.812 16.5553V15.8415H61.3843V16.5553H62.812ZM61.3857 17.2691H62.0982V15.8415H61.3857V17.2691ZM60.6719 15.8415V16.5553H62.0996V15.8415H60.6719ZM62.0981 18.6973H62.8106V17.2697H62.0981V18.6973ZM62.812 18.6969V17.9835H61.3843V18.6969H62.812ZM61.3857 19.4107H62.0981V17.9831H61.3857V19.4107ZM62.0996 19.4107V18.6969H60.6719V19.4107H62.0996ZM62.0982 18.6969H61.3857V20.1245H62.0982V18.6969ZM61.3843 18.6973V19.4107H62.812V18.6973H61.3843ZM62.8105 17.9835H62.0982V19.4112H62.8105V17.9835ZM63.5244 19.4107V18.6973H62.0967V19.4107H63.5244ZM63.523 18.6969H62.8105V20.1245H63.523V18.6969ZM62.8092 18.6969V19.4107H64.2368V18.6969H62.8092ZM62.8106 19.4107H63.523V17.9831H62.8106V19.4107ZM62.0968 17.9835V18.6969H63.5244V17.9835H62.0968ZM62.8106 18.697H62.0981V20.1246H62.8106V18.697ZM63.5244 20.1246V19.4108H62.0968V20.1246H63.5244ZM62.0981 20.8384H62.8106V19.4108H62.0981V20.8384ZM61.3843 19.4108V20.1246H62.812V19.4108H61.3843ZM62.8105 20.8389H63.523V19.4113H62.8105V20.8389ZM63.5244 20.8389V20.1251H62.0967V20.8389H63.5244ZM63.5229 20.1251H62.8105V21.5528H63.5229V20.1251ZM64.2368 21.5523V20.8389H62.8091V21.5523H64.2368ZM64.2354 20.8385H63.5229V22.2661H64.2354V20.8385ZM63.5216 20.8385V21.5523H64.9492V20.8385H63.5216ZM63.523 21.5523H64.2354V20.1247H63.523V21.5523ZM62.8092 20.1251V20.8385H64.2368V20.1251H62.8092ZM68.5098 21.5523H69.2222V20.1247H68.5098V21.5523ZM69.2236 21.5523V20.8385H67.7959V21.5523H69.2236ZM69.2222 20.8385H68.5098V22.2661H69.2222V20.8385ZM68.5084 20.8385V21.5523H69.936V20.8385H68.5084ZM67.7974 19.4113H67.085V20.8389H67.7974V19.4113ZM68.5112 20.8389V20.1251H67.0836V20.8389H68.5112ZM67.085 21.5528H67.7974V20.1251H67.085V21.5528ZM67.7988 21.5523V20.8389H66.3712V21.5523H67.7988ZM65.6602 22.2661H67.085V20.8385H65.6602V22.2661ZM64.9463 20.839V21.5523H66.374V20.839H64.9463ZM64.9478 21.5528H65.6602V20.1252H64.9478V21.5528ZM64.234 20.1252V20.839H65.6616V20.1252H64.234ZM65.6602 19.4114H64.9478V20.839H65.6602V19.4114ZM66.374 20.8385V20.1252H64.9464V20.8385H66.374ZM67.085 20.1247H65.6602V21.5523H67.085V20.1247ZM66.3711 20.1251V20.8385H67.7988V20.1251H66.3711ZM67.7974 20.8386H67.085V22.2662H67.7974V20.8386ZM68.5112 22.2662V21.5524H67.0836V22.2662H68.5112ZM67.085 22.98H67.7974V21.5524H67.085V22.98ZM66.3711 21.5524V22.2662H67.7988V21.5524H66.3711ZM69.2227 20.8389H69.9351V19.4113H69.2227V20.8389ZM69.9365 20.8389V20.1251H68.5088V20.8389H69.9365ZM69.9351 20.1251H69.2227V21.5528H69.9351V20.1251ZM69.2213 20.1251V20.8389H70.6489V20.1251H69.2213ZM70.6475 18.697H69.9351V20.1246H70.6475V18.697ZM71.3613 20.1246V19.4108H69.9337V20.1246H71.3613ZM69.9351 20.8384H70.6475V19.4108H69.9351V20.8384ZM69.2212 19.4108V20.1246H70.6489V19.4108H69.2212ZM69.9351 19.4112H70.647V17.9835H69.9351V19.4112ZM70.6489 19.4107V18.6973H69.2213V19.4107H70.6489ZM69.2227 20.1245H69.9351V18.6969H69.2227V20.1245ZM68.5088 18.6969V19.4107H69.9365V18.6969H68.5088ZM69.9351 17.9831H69.2227V19.4107H69.9351V17.9831ZM69.2212 17.9835V18.6969H70.6489V17.9835H69.2212ZM70.6475 17.2697H69.9351V18.6973H70.6475V17.2697ZM71.3613 18.6969V17.9835H69.9337V18.6969H71.3613ZM71.3594 17.9831H70.6475V19.4107H71.3594V17.9831ZM72.0732 19.4107V18.6969H70.6456V19.4107H72.0732ZM70.647 20.1245H71.3594V18.6969H70.647V20.1245ZM69.9332 18.6973V19.4107H71.3608V18.6973H69.9332ZM70.647 16.5558H69.9351V17.9834H70.647V16.5558ZM71.3608 17.983V17.2696H69.9332V17.983H71.3608ZM71.3594 17.2692H70.647V18.6968H71.3594V17.2692ZM70.6456 17.2692V17.983H72.0732V17.2692H70.6456ZM70.6475 17.983H71.3594V16.5553H70.6475V17.983ZM69.9337 16.5558V17.2692H71.3613V16.5558H69.9337ZM69.9351 17.2696H70.6475V15.842H69.9351V17.2696ZM70.6489 17.2692V16.5558H69.2212V17.2692H70.6489ZM69.2227 17.983H69.9351V16.5553H69.2227V17.983ZM69.9365 17.983V17.2692H68.5088V17.983H69.9365ZM69.9351 17.2692H69.2227V18.6968H69.9351V17.2692ZM69.2213 17.2696V17.983H70.6489V17.2696H69.2213ZM70.647 16.5552H71.3594V15.1276H70.647V16.5552ZM71.3608 16.5553V15.8414H69.9332V16.5553H71.3608ZM71.3594 15.8414H70.647V17.2691H71.3594V15.8414ZM70.6456 15.8414V16.5553H72.0732V15.8414H70.6456ZM69.9351 15.1276H69.2227V16.5552H69.9351V15.1276ZM70.6489 16.5553V15.8414H69.2213V16.5553H70.6489ZM69.2227 17.2691H69.9351V15.8414H69.2227V17.2691ZM68.5088 15.8414V16.5553H69.9365V15.8414H68.5088ZM68.5098 15.8419H69.2222V14.4142H68.5098V15.8419ZM69.2236 15.8419V15.1281H67.7959V15.8419H69.2236ZM69.2222 15.1281H68.5098V16.5557H69.2222V15.1281ZM68.5084 15.1281V15.8419H69.936V15.1281H68.5084ZM69.9351 13.7004H69.2227V15.128H69.9351V13.7004ZM70.6489 15.128V14.4142H69.2213V15.128H70.6489ZM69.2227 15.8418H69.9351V14.4142H69.2227V15.8418ZM68.5088 14.4142V15.128H69.9365V14.4142H68.5088ZM68.5098 14.4141H69.2222V12.9865H68.5098V14.4141ZM69.2236 14.4141V13.7003H67.7959V14.4141H69.2236ZM69.2222 13.7003H68.5098V15.128H69.2222V13.7003ZM68.5084 13.7003V14.4141H69.936V13.7003H68.5084ZM65.6606 13.7004H64.9482V15.128H65.6606V13.7004ZM65.6607 13.7004H65.6606V15.128H65.6607V13.7004ZM67.0854 13.7004H65.6607V15.128H67.0854V13.7004ZM67.7992 15.128V14.4142H66.3716V15.128H67.7992ZM65.6607 15.8418H67.0854V14.4142H65.6607V15.8418ZM66.3745 15.8418V15.128H64.9468V15.8418H66.3745ZM64.9482 16.5556H65.6607V15.128H64.9482V16.5556ZM64.2344 14.4142V15.8418H65.6621V14.4142H64.2344ZM67.0854 15.128H67.7979V13.7004H67.0854V15.128ZM67.7993 15.8418V14.4142H66.3716V15.8418H67.7993ZM67.7979 15.128H67.0854V16.5556H67.7979V15.128ZM67.0841 14.4142V15.8418H68.5117V14.4142H67.0841ZM65.6602 20.8386H64.9478V22.2662H65.6602V20.8386ZM66.374 22.2661V21.5524H64.9464V22.2661H66.374ZM67.0849 21.5523H65.6602V22.98H67.0849V21.5523ZM67.7987 22.98V22.2661H66.3711V22.98H67.7987ZM65.6601 23.6938H67.0849V22.2662H65.6601V23.6938ZM64.9463 22.2662V22.98H66.3739V22.2662H64.9463ZM64.9478 22.98H65.6601V21.5524H64.9478V22.98ZM64.2339 21.5524V22.2662H65.6616V21.5524H64.2339ZM64.2354 16.5557H64.9478V15.1281H64.2354V16.5557ZM64.9492 16.5558V15.8419H63.5215V16.5558H64.9492ZM64.9492 17.2696V16.5558H63.5215V17.2696H64.9492ZM64.9492 20.1248V17.2696H63.5215V20.1248H64.9492ZM64.9478 19.411H64.2354V20.8387H64.9478V19.411ZM64.234 17.2696V20.1248H65.6616V17.2696H64.234ZM67.7974 16.5558H64.9478V17.9834H67.7974V16.5558ZM68.5112 20.1248V17.2696H67.0836V20.1248H68.5112ZM68.5098 19.411H67.7974V20.8387H68.5098V19.411ZM67.796 17.2696V20.1248H69.2236V17.2696H67.796ZM68.5099 16.5558H68.5098V17.9834H68.5099V16.5558ZM67.7961 16.5558V17.2696H69.2237V16.5558H67.7961ZM68.5098 17.2696H68.5099V15.842H68.5098V17.2696ZM67.796 15.8419V16.5558H69.2236V15.8419H67.796ZM67.7974 16.5557H68.5098V15.1281H67.7974V16.5557ZM68.5112 16.5558V15.8419H67.0836V16.5558H68.5112ZM64.9478 17.2696H67.7974V15.842H64.9478V17.2696ZM64.234 15.8419V16.5558H65.6616V15.8419H64.234Z" fill="white" mask="url(#path-6-outside-1_406_7976)"/>
<path fill-rule="evenodd" clip-rule="evenodd" d="M67.8099 17.2838H64.9546V20.1475L65.6684 20.1474V20.8634H67.096V20.1474L67.8099 20.1475V17.2838Z" fill="#FFDD2D"/>
<path d="M75.3555 14.7272V21.6817H77.4471V19.8116H79.6541C80.1734 19.8116 80.6783 19.797 81.1687 19.6363C82.1207 19.3294 82.8276 18.4674 82.8276 17.2986C82.8276 16.1298 82.1352 15.2824 81.1976 14.9463C80.6783 14.7564 80.1878 14.7272 79.6541 14.7272H75.3555ZM77.4471 16.4074H79.3512C79.7551 16.4074 79.9859 16.4512 80.1734 16.5243C80.5052 16.6557 80.6638 16.9626 80.6638 17.284C80.6638 17.6346 80.4763 17.9707 80.1157 18.0876C79.9426 18.146 79.7406 18.1752 79.3512 18.1752H77.4471V16.4074Z" fill="white"/>
<path d="M88.48 20.6736L88.8839 21.6817H91.2351L88.4223 14.7272H85.3642L82.5513 21.6817H84.917L85.3065 20.6736H88.48ZM86.8211 16.3343H86.9798L87.9751 19.1395H85.8258L86.8211 16.3343Z" fill="white"/>
<path d="M96.3263 14.7272L94.6242 17.8976H94.5521L92.8355 14.7272H90.3977L93.4991 19.8262V21.6817H95.6628V19.6655L98.6055 14.7272H96.3263Z" fill="white"/>
</g>
<path d="M159.606 25.3098L155.448 27.8727L151.583 35L167.336 25.3098H159.606Z" fill="#027C37"/>
<path d="M198.7 13.658V22.3821H195.823V16.2556H193.055V22.3821H190.178V13.658H198.7Z" fill="black"/>
<path d="M188.766 18.2973C188.804 20.8312 186.888 22.6304 184.163 22.6304C181.585 22.6304 179.413 20.97 179.413 16.9204C179.413 13.484 181.476 10.6551 184.521 10.5972H188.761L187.415 13.1832H184.825C184.185 13.1597 183.558 13.3904 183.068 13.8307C182.578 14.2711 182.258 14.8896 182.171 15.5667C182.979 14.8266 184.015 14.4292 185.081 14.4502C186.041 14.4659 186.96 14.8746 187.646 15.5917C188.332 16.3088 188.733 17.2796 188.766 18.3031V18.2973ZM185.895 18.4998C185.898 18.1386 185.801 17.7845 185.616 17.4819C185.431 17.1793 185.166 16.9416 184.855 16.7988C184.543 16.6559 184.199 16.6142 183.866 16.6789C183.533 16.7436 183.224 16.9117 182.98 17.1623C182.736 17.4129 182.567 17.7347 182.494 18.0874C182.421 18.4401 182.447 18.8079 182.569 19.1448C182.691 19.4817 182.904 19.7726 183.181 19.981C183.458 20.1894 183.786 20.306 184.125 20.3163C184.354 20.3248 184.583 20.2842 184.797 20.1968C185.011 20.1094 185.206 19.9771 185.371 19.8076C185.536 19.6382 185.668 19.435 185.758 19.2104C185.848 18.9857 185.894 18.7441 185.895 18.4998Z" fill="black"/>
<path d="M177.198 19.3857C176.521 19.8287 175.74 20.0593 174.945 20.051C174.448 20.023 173.98 19.7929 173.638 19.4081C173.295 19.0233 173.105 18.5132 173.105 17.9828C173.105 17.4525 173.295 16.9423 173.638 16.5575C173.98 16.1728 174.448 15.9426 174.945 15.9146C175.738 15.9049 176.518 16.1357 177.193 16.5799L178.278 14.5204C177.373 13.775 176.258 13.3774 175.113 13.3923C172.307 13.3923 170.375 15.822 170.375 17.9857C170.375 20.5138 172.546 22.6138 175.097 22.6138C176.252 22.6276 177.377 22.2192 178.284 21.4568L177.198 19.3857Z" fill="black"/>
<path d="M147.723 18.002L143.559 20.5591L139.7 27.6922L155.447 18.002H147.723Z" fill="#954B97"/>
<path d="M159.606 10.6896L155.448 13.2524L151.583 20.3798L167.336 10.6896H159.606Z" fill="#DA1945"/>
<path d="M155.447 8.13311L151.587 1V34.9995L155.447 27.8721V8.13311Z" fill="#FBBB25"/>
<path d="M151.583 1L155.447 8.13311L159.611 10.6902L167.336 10.6896L151.583 1Z" fill="#F07F1B"/>
<path d="M151.583 15.6189V35L155.447 27.8721L155.448 22.752L151.583 15.6189Z" fill="#65B330"/>
<path d="M139.7 8.31266V27.6922L143.559 20.5591V15.44L139.7 8.31266Z" fill="#5C57A2"/>
<path d="M151.583 15.6189L151.588 15.6251L139.7 8.31266L143.559 15.44L159.611 25.3095L167.336 25.3098L151.583 15.6189Z" fill="#0494D3"/>
<g clip-path="url(#clip1_406_7976)">
<path fill-rule="evenodd" clip-rule="evenodd" d="M244.916 24.5619H241.404L238.77 14.2183C238.645 13.7425 238.379 13.3219 237.989 13.1236C237.014 12.6254 235.941 12.2289 234.769 12.0289V11.6307H240.427C241.208 11.6307 241.794 12.2289 241.892 12.9236L243.258 20.3848L246.769 11.6307H250.183L244.916 24.5619ZM252.136 24.5619H248.819L251.55 11.6307H254.867L252.136 24.5619ZM259.159 15.214C259.256 14.5175 259.842 14.1193 260.525 14.1193C261.599 14.0193 262.769 14.2192 263.745 14.7157L264.331 11.9316C263.354 11.5334 262.281 11.3334 261.306 11.3334C258.087 11.3334 255.744 13.1245 255.744 15.6105C255.744 17.5016 257.403 18.4946 258.575 19.0928C259.842 19.6893 260.33 20.0875 260.232 20.684C260.232 21.5787 259.256 21.977 258.282 21.977C257.111 21.977 255.939 21.6787 254.867 21.1805L254.282 23.9664C255.453 24.4629 256.72 24.6628 257.891 24.6628C261.501 24.7611 263.745 22.9717 263.745 20.2858C263.745 16.9034 259.159 16.7052 259.159 15.214ZM275.354 24.5619L272.72 11.6307H269.891C269.305 11.6307 268.719 12.0289 268.524 12.6254L263.647 24.5619H267.062L267.743 22.6725H271.939L272.329 24.5619H275.354ZM270.379 15.1127L271.353 19.9862H268.622L270.379 15.1127Z" fill="#15195A"/>
</g>
<g clip-path="url(#clip2_406_7976)">
<path d="M319.965 10.095H311.415V25.499H319.965V10.095Z" fill="#FF5F00"/>
<path d="M311.959 17.7968C311.958 16.3146 312.293 14.8514 312.94 13.5176C313.586 12.1836 314.526 11.0138 315.69 10.0961C314.462 9.13043 313.021 8.47255 311.486 8.17733C309.952 7.88211 308.37 7.95813 306.871 8.39903C305.372 8.83993 304 9.63293 302.871 10.7118C301.741 11.7908 300.885 13.1243 300.375 14.6011C299.866 16.078 299.717 17.6553 299.941 19.2015C300.165 20.7477 300.755 22.2179 301.663 23.4893C302.571 24.7608 303.77 25.7966 305.16 26.5104C306.549 27.2243 308.09 27.5953 309.652 27.5927C311.843 27.5955 313.971 26.8571 315.69 25.4974C314.526 24.5797 313.586 23.4099 312.94 22.076C312.293 20.7421 311.958 19.279 311.959 17.7968Z" fill="#EB001B"/>
<path d="M330.563 23.8664V23.5508H330.691V23.4855H330.359V23.5508H330.487V23.8664H330.563ZM331.192 23.8664V23.4855H331.094L330.98 23.7576L330.865 23.4855H330.765V23.8664H330.836V23.578L330.942 23.8256H331.015L331.121 23.578V23.8664H331.192Z" fill="#F79E1B"/>
<path d="M331.497 17.7961C331.503 19.6319 330.991 21.4323 330.021 22.9906C329.05 24.5489 327.66 25.8019 326.01 26.606C324.359 27.41 322.516 27.7324 320.69 27.5362C318.865 27.34 317.132 26.6332 315.69 25.4968C316.853 24.5783 317.793 23.4083 318.439 22.0746C319.086 20.7409 319.421 19.2781 319.421 17.7961C319.421 16.314 319.086 14.8513 318.439 13.5176C317.793 12.1839 316.853 11.0139 315.69 10.0954C317.132 8.95898 318.865 8.25212 320.69 8.05592C322.516 7.85972 324.359 8.18214 326.01 8.98618C327.66 9.79022 329.05 11.0433 330.021 12.6016C330.991 14.1599 331.503 15.9602 331.497 17.7961Z" fill="#F79E1B"/>
</g>
<g clip-path="url(#clip3_406_7976)">
<path d="M366.588 12.928L364.766 19.2387H364.454L362.633 12.928C362.321 11.8602 361.343 11.125 360.225 11.125H355.856V24.8625H360.231V16.7434H360.542L363.046 24.8625H366.174L368.673 16.7434H368.984V24.8625H373.359V11.125H368.99C367.877 11.125 366.899 11.8602 366.588 12.928ZM390.807 24.8625H395.209V20.8003H399.637C401.953 20.8003 403.925 19.4909 404.688 17.6503H390.807V24.8625ZM383.01 12.5739L379.931 19.2441H379.619V11.125H375.245V24.8625H378.958C379.936 24.8625 380.823 24.2937 381.231 23.4136L384.31 16.7488H384.622V24.8625H388.996V11.125H385.283C384.305 11.125 383.418 11.6938 383.01 12.5739Z" fill="#006848"/>
<path d="M399.837 10.5C401.1 10.5 402.245 10.983 403.11 11.7772C404.077 12.6572 404.684 13.9237 404.684 15.335C404.684 15.6247 404.652 15.9092 404.604 16.1882H396.479C393.727 16.1882 391.395 14.3851 390.611 11.8952C390.6 11.8684 390.594 11.8362 390.584 11.804C390.562 11.7289 390.546 11.6484 390.525 11.5732C390.444 11.2244 390.39 10.8703 390.369 10.5H399.837Z" fill="url(#paint0_linear_406_7976)"/>
</g>
<defs>
<linearGradient id="paint0_linear_406_7976" x1="404.684" y1="28.2899" x2="390.456" y2="28.2899" gradientUnits="userSpaceOnUse">
<stop stop-color="#1E5CD8"/>
<stop offset="1" stop-color="#02AFFF"/>
</linearGradient>
<clipPath id="clip0_406_7976">
<rect width="103.7" height="24" fill="white" transform="translate(0 6)"/>
</clipPath>
<clipPath id="clip1_406_7976">
<rect width="40.8333" height="13.3333" fill="white" transform="translate(234.7 11.3334)"/>
</clipPath>
<clipPath id="clip2_406_7976">
<rect width="32.2449" height="20" fill="white" transform="translate(299.533 8)"/>
</clipPath>
<clipPath id="clip3_406_7976">
<rect width="49.0625" height="15" fill="white" transform="translate(355.778 10.5)"/>
</clipPath>
</defs>
</svg>
