<svg width="131" height="36" viewBox="0 0 131 36" fill="none" xmlns="http://www.w3.org/2000/svg">
<rect width="36" height="36" rx="11.25" fill="white"/>
<path fill-rule="evenodd" clip-rule="evenodd" d="M16.9042 14.2979L14.5396 9.5L6.78711 23.8957H11.5463L16.9042 14.2979ZM13.5615 23.8957L17.9338 15.4276L22.453 23.8957H13.5615ZM21.4752 9.5L19.1106 14.2979L24.4685 23.8957H29.2277L21.4752 9.5Z" fill="#1665FF"/>
<path d="M48 10.3621H50.7149V25.4695H48V10.3621ZM54.3057 23.4114L49.8173 10.3621H52.5322L57.0206 23.4114H54.3057ZM59.3634 10.3621H61.7718L57.2615 23.4114H54.853L59.3634 10.3621ZM60.8741 25.4695V10.3621H63.8737V25.4695H60.8741Z" fill="white"/>
<path d="M66.9272 10.3621H73.7365C75.4151 10.3621 76.6485 10.7927 77.4367 11.6539C78.2249 12.5005 78.619 13.6974 78.619 15.2446C78.619 16.7773 78.2249 17.9596 77.4367 18.7916C76.6485 19.6236 75.4151 20.0396 73.7365 20.0396H69.9268V25.4695H66.9272V10.3621ZM75.5537 15.5949V14.8505C75.5537 14.2813 75.3786 13.8069 75.0283 13.4274C74.678 13.0333 74.1233 12.8362 73.3643 12.8362H69.9268V17.5655H73.3643C74.1087 17.5655 74.6561 17.383 75.0064 17.0181C75.3713 16.6532 75.5537 16.1788 75.5537 15.5949Z" fill="white"/>
<path d="M80.6801 10.3621H87.4675C88.8395 10.3621 89.9124 10.6686 90.686 11.2817C91.4596 11.8801 91.8464 12.807 91.8464 14.0623C91.8464 14.7629 91.7005 15.4052 91.4085 15.9891C91.1312 16.5583 90.6568 17.0181 89.9854 17.3684C89.3139 17.7041 88.4016 17.872 87.2485 17.872V17.3684C88.9855 17.3684 90.2408 17.6968 91.0144 18.3537C91.8026 19.0105 92.1967 19.9374 92.1967 21.1343C92.1967 22.5356 91.8172 23.6084 91.0582 24.3528C90.2992 25.0973 89.168 25.4695 87.6645 25.4695H80.6801V10.3621ZM88.8468 14.8724V14.2375C88.8468 13.6974 88.6717 13.2814 88.3214 12.9895C87.9856 12.6829 87.4821 12.5297 86.8106 12.5297H83.614V16.7335H86.8106C87.4675 16.7335 87.9711 16.5729 88.3214 16.2518C88.6717 15.9161 88.8468 15.4563 88.8468 14.8724ZM89.1972 21.4627V20.6307C89.1972 20.0323 89.0074 19.5725 88.6279 19.2514C88.2484 18.9157 87.6791 18.7478 86.9201 18.7478H83.614V23.3019H86.9201C88.4381 23.3019 89.1972 22.6888 89.1972 21.4627Z" fill="white"/>
<path d="M93.9691 24.1558C93.9691 23.6011 94.1151 23.1997 94.407 22.9516C94.6989 22.7034 95.1076 22.5794 95.6331 22.5794C96.1732 22.5794 96.5819 22.7034 96.8592 22.9516C97.1511 23.1997 97.2971 23.6011 97.2971 24.1558C97.2971 24.7105 97.1511 25.1192 96.8592 25.3819C96.5819 25.63 96.1732 25.7541 95.6331 25.7541C95.1076 25.7541 94.6989 25.63 94.407 25.3819C94.1151 25.1192 93.9691 24.7105 93.9691 24.1558Z" fill="white"/>
<path d="M99.9376 22.0539V10.2206H102.828V21.7255C102.828 22.2363 102.93 22.6085 103.134 22.8421C103.339 23.061 103.696 23.1705 104.207 23.1705H105.411V25.4695H103.353C102.069 25.4695 101.178 25.1994 100.682 24.6593C100.186 24.1193 99.9376 23.2508 99.9376 22.0539ZM98.5801 15.8913V13.5924H105.411V15.8913H98.5801Z" fill="white"/>
<path d="M114.797 20.8716V19.0324C114.797 18.0106 114.579 17.2881 114.141 16.8648C113.703 16.4269 113.075 16.208 112.258 16.208C111.44 16.208 110.813 16.4269 110.375 16.8648C109.937 17.2881 109.718 18.0106 109.718 19.0324V20.8716C109.718 21.8933 109.937 22.6231 110.375 23.061C110.813 23.4843 111.44 23.696 112.258 23.696C113.075 23.696 113.703 23.4843 114.141 23.061C114.579 22.6231 114.797 21.8933 114.797 20.8716ZM106.762 19.952C106.762 18.4923 106.966 17.3465 107.375 16.5145C107.798 15.6679 108.419 15.0622 109.236 14.6972C110.054 14.3323 111.061 14.1499 112.258 14.1499C113.455 14.1499 114.454 14.3323 115.257 14.6972C116.075 15.0622 116.688 15.6679 117.096 16.5145C117.52 17.3465 117.731 18.4923 117.731 19.952C117.731 21.4408 117.52 22.6085 117.096 23.4551C116.688 24.2871 116.075 24.8783 115.257 25.2286C114.454 25.5789 113.455 25.7541 112.258 25.7541C111.061 25.7541 110.054 25.5789 109.236 25.2286C108.419 24.8783 107.798 24.2871 107.375 23.4551C106.966 22.6085 106.762 21.4408 106.762 19.952Z" fill="white"/>
<path d="M119.886 14.4345H122.689V17.1057L122.776 17.1495V29.0063H119.886V14.4345ZM127.856 20.9372V18.9448C127.856 17.9669 127.637 17.2662 127.199 16.8429C126.761 16.4196 126.134 16.208 125.316 16.208C124.47 16.208 123.835 16.4196 123.411 16.8429C122.988 17.2662 122.776 17.9669 122.776 18.9448V20.9372C122.776 21.9006 122.995 22.6012 123.433 23.0391C123.871 23.477 124.499 23.696 125.316 23.696C126.134 23.696 126.761 23.477 127.199 23.0391C127.637 22.5866 127.856 21.886 127.856 20.9372ZM121.835 19.9739C121.835 17.8866 122.215 16.3977 122.974 15.5074C123.747 14.6024 124.856 14.1499 126.302 14.1499C127.25 14.1499 128.06 14.3469 128.732 14.741C129.418 15.1205 129.936 15.7409 130.286 16.6021C130.637 17.4633 130.812 18.5872 130.812 19.9739C130.812 21.3314 130.637 22.4407 130.286 23.3019C129.936 24.1485 129.425 24.7688 128.754 25.1629C128.082 25.557 127.265 25.7541 126.302 25.7541C124.856 25.7541 123.747 25.3162 122.974 24.4404C122.215 23.55 121.835 22.0612 121.835 19.9739Z" fill="white"/>
</svg>
