<svg width="160" height="44" viewBox="0 0 160 44" fill="none" xmlns="http://www.w3.org/2000/svg">
<rect x="0.589844" width="44" height="44" rx="13.75" fill="#1665FF"/>
<path fill-rule="evenodd" clip-rule="evenodd" d="M26.8375 11.6111L23.9474 17.4752L30.4959 29.2059H36.3127L26.8375 11.6111ZM21.2506 17.4752L18.3605 11.6111L8.88525 29.2059H14.7021L21.2506 17.4752ZM17.165 29.2059L22.5089 18.856L28.0324 29.2059H17.165Z" fill="white"/>
<path d="M58.5449 12.6648H61.8632V31.1294H58.5449V12.6648ZM66.2519 28.6139L60.766 12.6648H64.0843L69.5701 28.6139H66.2519ZM72.4335 12.6648H75.3771L69.8645 28.6139H66.9209L72.4335 12.6648ZM74.2799 31.1294V12.6648H77.9461V31.1294H74.2799Z" fill="#1665FF"/>
<path d="M81.6782 12.6648H90.0006C92.0522 12.6648 93.5597 13.1911 94.5231 14.2436C95.4865 15.2784 95.9682 16.7413 95.9682 18.6323C95.9682 20.5055 95.4865 21.9506 94.5231 22.9675C93.5597 23.9844 92.0522 24.4928 90.0006 24.4928H85.3443V31.1294H81.6782V12.6648ZM92.2217 19.0605V18.1506C92.2217 17.4549 92.0076 16.8751 91.5795 16.4112C91.1513 15.9295 90.4734 15.6887 89.5457 15.6887H85.3443V21.4689H89.5457C90.4556 21.4689 91.1246 21.2459 91.5527 20.7999C91.9987 20.3539 92.2217 19.7741 92.2217 19.0605Z" fill="#1665FF"/>
<path d="M98.4873 12.6648H106.783C108.46 12.6648 109.771 13.0394 110.717 13.7887C111.662 14.5202 112.135 15.653 112.135 17.1873C112.135 18.0436 111.957 18.8286 111.6 19.5422C111.261 20.2379 110.681 20.7999 109.86 21.2281C109.04 21.6384 107.925 21.8436 106.515 21.8436V21.2281C108.638 21.2281 110.173 21.6295 111.118 22.4323C112.081 23.2351 112.563 24.3679 112.563 25.8308C112.563 27.5435 112.099 28.8547 111.172 29.7646C110.244 30.6744 108.861 31.1294 107.024 31.1294H98.4873V12.6648ZM108.469 18.1774V17.4014C108.469 16.7413 108.255 16.2328 107.827 15.876C107.416 15.5014 106.801 15.3141 105.98 15.3141H102.073V20.452H105.98C106.783 20.452 107.398 20.2558 107.827 19.8633C108.255 19.453 108.469 18.891 108.469 18.1774ZM108.897 26.2322V25.2153C108.897 24.4839 108.665 23.9219 108.201 23.5295C107.737 23.1191 107.042 22.914 106.114 22.914H102.073V28.4801H106.114C107.969 28.4801 108.897 27.7308 108.897 26.2322Z" fill="#1665FF"/>
<path d="M114.729 29.5237C114.729 28.8458 114.908 28.3552 115.265 28.0519C115.621 27.7487 116.121 27.597 116.763 27.597C117.423 27.597 117.923 27.7487 118.262 28.0519C118.619 28.3552 118.797 28.8458 118.797 29.5237C118.797 30.2017 118.619 30.7012 118.262 31.0223C117.923 31.3256 117.423 31.4772 116.763 31.4772C116.121 31.4772 115.621 31.3256 115.265 31.0223C114.908 30.7012 114.729 30.2017 114.729 29.5237Z" fill="#1665FF"/>
<path d="M122.024 26.9547V12.4919H125.556V26.5533C125.556 27.1778 125.681 27.6327 125.931 27.9181C126.181 28.1857 126.618 28.3195 127.242 28.3195H128.714V31.1293H126.199C124.629 31.1293 123.541 30.7993 122.934 30.1392C122.327 29.4791 122.024 28.4176 122.024 26.9547ZM120.365 19.4228V16.6129H128.714V19.4228H120.365Z" fill="#2C3037"/>
<path d="M140.186 25.5097V23.2618C140.186 22.013 139.919 21.1299 139.383 20.6126C138.848 20.0774 138.081 19.8098 137.082 19.8098C136.083 19.8098 135.316 20.0774 134.781 20.6126C134.246 21.1299 133.978 22.013 133.978 23.2618V25.5097C133.978 26.7585 134.246 27.6505 134.781 28.1857C135.316 28.7031 136.083 28.9618 137.082 28.9618C138.081 28.9618 138.848 28.7031 139.383 28.1857C139.919 27.6505 140.186 26.7585 140.186 25.5097ZM130.365 24.3858C130.365 22.6017 130.615 21.2013 131.115 20.1844C131.632 19.1497 132.39 18.4093 133.389 17.9633C134.388 17.5173 135.619 17.2943 137.082 17.2943C138.545 17.2943 139.767 17.5173 140.748 17.9633C141.747 18.4093 142.497 19.1497 142.996 20.1844C143.513 21.2013 143.772 22.6017 143.772 24.3858C143.772 26.2055 143.513 27.6327 142.996 28.6674C142.497 29.6843 141.747 30.4068 140.748 30.835C139.767 31.2631 138.545 31.4772 137.082 31.4772C135.619 31.4772 134.388 31.2631 133.389 30.835C132.39 30.4068 131.632 29.6843 131.115 28.6674C130.615 27.6327 130.365 26.2055 130.365 24.3858Z" fill="#2C3037"/>
<path d="M146.406 17.6422H149.831V20.9069L149.938 20.9605V35.4522H146.406V17.6422ZM156.147 25.59V23.1548C156.147 21.9595 155.879 21.1032 155.344 20.5858C154.809 20.0684 154.042 19.8098 153.043 19.8098C152.008 19.8098 151.232 20.0684 150.714 20.5858C150.197 21.1032 149.938 21.9595 149.938 23.1548V25.59C149.938 26.7674 150.206 27.6238 150.741 28.159C151.276 28.6942 152.044 28.9618 153.043 28.9618C154.042 28.9618 154.809 28.6942 155.344 28.159C155.879 27.6059 156.147 26.7496 156.147 25.59ZM148.788 24.4125C148.788 21.8614 149.252 20.0417 150.179 18.9534C151.125 17.8473 152.481 17.2943 154.247 17.2943C155.406 17.2943 156.397 17.5351 157.217 18.0168C158.056 18.4807 158.689 19.2389 159.117 20.2914C159.545 21.344 159.759 22.7177 159.759 24.4125C159.759 26.0717 159.545 27.4275 159.117 28.4801C158.689 29.5148 158.065 30.273 157.244 30.7547C156.423 31.2364 155.424 31.4772 154.247 31.4772C152.481 31.4772 151.125 30.942 150.179 29.8716C149.252 28.7834 148.788 26.9637 148.788 24.4125Z" fill="#2C3037"/>
</svg>
