<svg width="99" height="36" viewBox="0 0 99 36" fill="none" xmlns="http://www.w3.org/2000/svg">
<path id="Qiwi" d="M65.1575 7.61424V24.4055C65.1575 24.6715 64.9586 24.871 64.6933 24.871H61.2779C61.0126 24.871 60.8137 24.6715 60.8137 24.4055V7.61424C60.8137 7.34824 61.0126 7.14875 61.2779 7.14875H64.6933C64.9586 7.182 65.1575 7.38149 65.1575 7.61424ZM91.8174 7.182H88.0041C87.8052 7.182 87.6394 7.315 87.5731 7.5145L84.5556 17.4562L81.2397 7.5145C81.1733 7.315 81.0076 7.21525 80.8086 7.21525H78.1227C77.9238 7.21525 77.758 7.34825 77.6917 7.5145L74.3757 17.4562L71.3583 7.5145C71.292 7.315 71.1262 7.182 70.9272 7.182H67.1139C66.9813 7.182 66.8155 7.2485 66.7492 7.3815C66.6497 7.5145 66.6497 7.64749 66.6829 7.78049L72.3199 24.605C72.3862 24.8045 72.552 24.9042 72.751 24.9042H75.8016C76.0005 24.9042 76.1663 24.7712 76.2327 24.605L79.5154 14.7962L82.7981 24.605C82.8645 24.8045 83.0303 24.9042 83.2292 24.9042H86.2798C86.4788 24.9042 86.6446 24.7712 86.7109 24.605L92.3479 7.78049C92.3811 7.64749 92.3811 7.48125 92.2816 7.3815C92.1158 7.2485 91.9832 7.182 91.8174 7.182ZM97.5871 7.182H94.1717C93.9064 7.182 93.7075 7.3815 93.7075 7.6475V24.4387C93.7075 24.7047 93.9064 24.9042 94.1717 24.9042H97.5871C97.8524 24.9042 98.0513 24.7047 98.0513 24.4387V7.6475C98.0513 7.3815 97.8192 7.182 97.5871 7.182ZM58.8573 24.3057C59.0563 24.5385 58.8905 24.871 58.592 24.871H54.414C54.2482 24.871 54.0824 24.8045 53.9829 24.6715L53.2866 23.807C51.8276 24.738 50.1033 25.3032 48.2796 25.3032C43.1731 25.3032 39.0282 21.147 39.0282 16.0265C39.0282 10.906 43.1731 6.74974 48.2796 6.74974C53.3861 6.74974 57.531 10.906 57.531 16.0265C57.531 17.8552 57.0004 19.5842 56.072 21.0472L58.8573 24.3057ZM50.5344 20.5817L48.7106 18.354C48.5117 18.1212 48.6775 17.7555 48.9759 17.7555H52.8224C53.0213 17.2235 53.1208 16.625 53.1208 16.0265C53.1208 13.2667 51.0649 10.8727 48.2464 10.8727C45.4279 10.8727 43.372 13.2667 43.372 16.0265C43.372 18.7862 45.4279 21.147 48.2464 21.147C49.0754 21.1802 49.8381 20.9475 50.5344 20.5817ZM28.4505 24.2392C28.5499 24.9375 28.3178 25.2367 28.1189 25.2367C27.8868 25.2367 27.5883 24.9375 27.2236 24.4055C26.8588 23.8402 26.7262 23.2085 26.9251 22.9092C27.0246 22.7097 27.2899 22.61 27.5883 22.7097C28.152 22.9092 28.3841 23.807 28.4505 24.2392ZM25.1677 25.7355C25.8641 26.334 26.0962 27.0655 25.7314 27.5642C25.5325 27.8302 25.2009 27.9965 24.7698 27.9965C24.3719 27.9965 23.974 27.8635 23.6756 27.5975C23.0455 27.0322 22.8466 26.1012 23.2776 25.6025C23.4434 25.403 23.7087 25.3032 24.0403 25.3032C24.4051 25.3032 24.803 25.4695 25.1677 25.7355ZM23.974 31.5542C27.0246 31.5542 30.3405 32.6182 34.0212 35.8767C34.3859 36.2092 34.8833 35.8102 34.5517 35.378C30.9374 30.8227 27.6215 29.9582 24.3056 29.2267C20.227 28.329 18.138 26.0347 16.679 23.5077C16.3806 23.009 16.2479 23.1087 16.2479 23.7405C16.2148 24.5385 16.2811 25.5692 16.4469 26.6C16.2811 26.6 16.1153 26.6 15.9495 26.6C10.1467 26.6 5.40492 21.8785 5.40492 16.0265C5.40492 10.2077 10.1135 5.45299 15.9495 5.45299C21.7855 5.45299 26.4941 10.1745 26.4941 16.0265C26.4941 16.4255 26.4609 16.8577 26.4278 17.2567C25.6651 17.1237 24.1398 17.0905 23.0787 17.1902C22.6808 17.2235 22.7471 17.423 23.0455 17.4562C26.5272 18.088 28.9147 20.2492 29.4784 24.1727C29.4784 24.2725 29.611 24.3057 29.6442 24.206C31.07 21.812 31.899 19.019 31.899 15.9932C31.899 7.182 24.7698 0 15.9495 0C7.1292 0 0 7.14875 0 15.9932C0 24.8045 7.1292 31.9865 15.9495 31.9865C18.2706 32.0197 20.5918 31.5542 23.974 31.5542Z" fill="#F09235"/>
</svg>
