<svg width="251" height="200" viewBox="0 0 251 200" fill="none" xmlns="http://www.w3.org/2000/svg">
<path fill-rule="evenodd" clip-rule="evenodd" d="M207.5 65C211.366 65 214.5 68.134 214.5 72C214.5 75.866 211.366 79 207.5 79H167.5C171.366 79 174.5 82.134 174.5 86C174.5 89.866 171.366 93 167.5 93H189.5C193.366 93 196.5 96.134 196.5 100C196.5 103.866 193.366 107 189.5 107H179.326C174.452 107 170.5 110.134 170.5 114C170.5 116.577 172.5 118.911 176.5 121C180.366 121 183.5 124.134 183.5 128C183.5 131.866 180.366 135 176.5 135H93.5C89.634 135 86.5 131.866 86.5 128C86.5 124.134 89.634 121 93.5 121H54.5C50.634 121 47.5 117.866 47.5 114C47.5 110.134 50.634 107 54.5 107H94.5C98.366 107 101.5 103.866 101.5 100C101.5 96.134 98.366 93 94.5 93H69.5C65.634 93 62.5 89.866 62.5 86C62.5 82.134 65.634 79 69.5 79H109.5C105.634 79 102.5 75.866 102.5 72C102.5 68.134 105.634 65 109.5 65H207.5ZM207.5 93C211.366 93 214.5 96.134 214.5 100C214.5 103.866 211.366 107 207.5 107C203.634 107 200.5 103.866 200.5 100C200.5 96.134 203.634 93 207.5 93Z" fill="#E7EAF0"/>
<path d="M121 133C139.502 133 154.5 118.002 154.5 99.5C154.5 80.9985 139.502 66 121 66C102.498 66 87.5 80.9985 87.5 99.5C87.5 118.002 102.498 133 121 133Z" fill="#F4F7FC" stroke="#1665FF" stroke-width="1.5"/>
<path fill-rule="evenodd" clip-rule="evenodd" d="M115.632 125.494C117.391 125.819 119.18 125.987 121 126C135.636 126 147.5 114.136 147.5 99.5C147.5 84.8645 135.636 73 121 73C117.24 73 113.664 73.7829 110.424 75.1946C104.794 77.6479 100.182 81.9999 97.396 87.4419C95.5445 91.0589 94.5 95.1575 94.5 99.5C94.5 103.44 95.3599 107.179 96.9021 110.54C98.0032 112.94 99.4521 115.146 101.184 117.096" fill="white"/>
<path d="M115.632 125.494C117.391 125.819 119.18 125.987 121 126C135.636 126 147.5 114.136 147.5 99.5C147.5 84.8645 135.636 73 121 73C117.24 73 113.664 73.7829 110.424 75.1946C104.794 77.6479 100.182 81.9999 97.396 87.4419C95.5445 91.0589 94.5 95.1575 94.5 99.5C94.5 103.44 95.3599 107.179 96.9021 110.54C98.0032 112.94 99.4521 115.146 101.184 117.096" stroke="#1665FF" stroke-width="1.5" stroke-linecap="round"/>
<path d="M104.297 120.075C106.445 121.821 108.872 123.237 111.501 124.247" stroke="#1665FF" stroke-width="1.5" stroke-linecap="round"/>
<path d="M148.5 126L154.5 132" stroke="#1665FF" stroke-width="1.5"/>
<path fill-rule="evenodd" clip-rule="evenodd" d="M153.53 131.03C151.638 132.923 151.638 135.992 153.53 137.885L164.616 148.97C166.508 150.863 169.577 150.863 171.47 148.97C173.363 147.077 173.363 144.008 171.47 142.116L160.385 131.03C158.492 129.138 155.423 129.138 153.53 131.03Z" fill="white" stroke="#1665FF" stroke-width="1.5"/>
<path d="M158.5 133L169.5 144" stroke="white" stroke-width="1.5" stroke-linecap="round"/>
<path fill-rule="evenodd" clip-rule="evenodd" d="M114.5 88C114.5 99.598 123.902 109 135.5 109C137.778 109 139.972 108.637 142.026 107.966C138.673 116.287 130.523 122.161 121 122.161C108.485 122.161 98.3394 112.015 98.3394 99.5C98.3394 88.1596 106.67 78.7648 117.545 77.1011C115.613 80.2793 114.5 84.0097 114.5 88Z" fill="white"/>
</svg>
