<svg width="162" height="36" viewBox="0 0 162 36" fill="none" xmlns="http://www.w3.org/2000/svg">
<g id="iomoney">
<path id="Vector" d="M142.326 18.1037C142.326 13.6881 138.985 10.1162 134.265 10.1162C129.639 10.1162 126.345 13.5508 126.345 18.2702C126.345 23.0132 129.733 26.4715 134.593 26.4715C137.676 26.4715 140.269 25.0922 141.882 22.2887L138.611 20.77C137.841 22.1717 136.158 23.083 134.593 23.083C132.607 23.083 130.318 21.5878 130.177 19.5088H142.209C142.286 19.0444 142.325 18.5745 142.326 18.1037ZM130.247 16.7537C130.528 14.6511 131.976 13.273 134.289 13.273C136.578 13.273 137.98 14.623 138.167 16.7537H130.247Z" fill="black"/>
<path id="Vector_2" d="M97.289 10.1123C92.546 10.1123 89.1823 13.5244 89.1823 18.3372C89.1823 23.1027 92.546 26.4676 97.3363 26.4676C102.149 26.4676 105.513 23.1027 105.513 18.4069C105.513 13.5706 102.056 10.1123 97.289 10.1123ZM97.3363 22.8923C94.9524 22.8923 93.4809 21.1171 93.4809 18.3597C93.4809 15.5562 94.976 13.6403 97.3363 13.6403C99.719 13.6403 101.214 15.5326 101.214 18.3597C101.214 21.1407 99.7426 22.8923 97.3363 22.8923Z" fill="black"/>
<path id="Vector_3" d="M80.4004 10.117C78.4576 10.117 76.9939 10.7807 75.5303 12.4266H75.0499C74.0667 10.9405 72.4624 10.117 70.6624 10.117C69.7637 10.1082 68.8758 10.313 68.0717 10.7145C67.2677 11.1161 66.5705 11.7029 66.0376 12.4266H65.5572L65.5336 12.4041V10.4376H61.5128V26.1246H65.8576V18.0516C65.8576 15.445 66.9556 13.9127 68.8534 13.9127C70.6141 13.9127 71.7571 15.2166 71.7571 17.2056V26.1246H76.1243V18.0516C76.1243 15.4641 77.2223 13.9127 79.1438 13.9127C80.8808 13.9127 82.0013 15.2166 82.0013 17.2292V26.1246H86.3697V16.7027C86.3697 12.61 84.1737 10.117 80.4004 10.117Z" fill="black"/>
<path id="Vector_4" d="M151.988 20.6844H151.677C151.677 20.4054 149.783 15.4374 148.541 12.3594L147.764 10.4346H143.387L149.597 26.1767L147.15 32.1752H151.497L160.44 10.4402H156.06L155.346 12.0861L152.924 18.0789C152.241 19.7529 151.961 20.5292 151.988 20.6844Z" fill="black"/>
<path id="Vector_5" d="M117.562 10.1172C115.618 10.1172 113.949 10.9632 112.828 12.4729H112.37L112.325 12.4504V10.4378H108.302V26.1248H112.647V18.0979C112.647 15.5374 113.885 13.9354 115.918 13.9354C117.815 13.9354 119.21 15.3529 119.21 17.5939V26.1237H123.555V16.6579C123.555 12.8161 121.04 10.1172 117.562 10.1172Z" fill="black"/>
<path id="Vector_6" d="M32.0052 1.125C22.6182 1.125 15.0751 8.71875 15.0751 18C15.0751 27.3578 22.6924 34.875 32.0029 34.875C41.3134 34.875 48.9376 27.2813 48.9376 18C48.9376 8.71875 41.3157 1.125 32.0052 1.125ZM32.0052 24.2899C28.5424 24.2899 25.6962 21.4515 25.6962 18C25.6962 14.5485 28.5424 11.7101 32.0052 11.7101C35.4679 11.7101 38.3153 14.5485 38.3153 18C38.2377 21.4515 35.4679 24.2899 32.0052 24.2899Z" fill="#8B3FFD"/>
<path id="Vector_7" d="M15.0748 6.02783V30.5731H9.07635L1.38135 6.02783H15.0748Z" fill="#8B3FFD"/>
</g>
</svg>
